<?xml version="1.0" encoding="UTF-8"?><svg id="Capa_1" xmlns="http://www.w3.org/2000/svg" viewBox="0 0 906.22 308.91"><defs><style>.cls-1{fill:#fff;}</style></defs><path class="cls-1" d="M423.76,40.03v101.84c6.49-.97,9.47-7.26,15.19-10.79,39.2-24.24,107.43.55,107.43,51.32v118.47c0,.22-2.9,3.12-3.12,3.12h-40.53v-107.03c0-.7-3.04-11.33-3.7-12.93-10.63-26.22-57.07-27.27-70.22-2.79-1.02,1.9-5.07,12.53-5.07,13.64v106c0,.22-2.9,3.12-3.12,3.12h-39.49c-.22,0-3.12-2.9-3.12-3.12V40.03h45.72Z"/><path class="cls-1" d="M350.97,214.79c0,51.98-42.14,94.12-94.12,94.12s-94.12-42.14-94.12-94.12,42.14-94.12,94.12-94.12,94.12,42.14,94.12,94.12ZM307.31,215.23c0-28.38-23.01-51.39-51.39-51.39s-51.39,23.01-51.39,51.39,23.01,51.39,51.39,51.39,51.39-23.01,51.39-51.39Z"/><path class="cls-1" d="M668.54,121.64c126.62-.97,126.12,187.69-2.55,186.57-124-1.09-123.6-185.6,2.55-186.57ZM720.64,215.39c0-28.76-23.32-52.08-52.08-52.08s-52.08,23.32-52.08,52.08,23.32,52.08,52.08,52.08,52.08-23.32,52.08-52.08Z"/><path class="cls-1" d="M134.6,138.02c1.83,3.12-15.28,36.6-17.52,37.08-12.3-7.3-26.76-14.45-41.45-14.69-12.15-.2-32.24,4.78-24.89,20.92,7.55,16.57,73.41,14.35,88.36,50.87,20.84,50.88-41.82,79.45-84.01,75.67-9.47-.85-56.98-13.35-55.05-25.33.32-1.99,17.6-29.98,19.44-30.11,18.47,13.78,42.09,20.67,65.11,14.79,16.94-4.32,18.4-18.86,3.12-27.29-25.45-14.04-76.75-13.28-83.29-51.79-11.38-66.96,88.03-82.37,130.16-50.12Z"/><path class="cls-1" d="M856.29,43.95c2.13,1.87,37.21-1.08,44.45.25,7.43,1.36,6.43,7.51,2.24,12.63-4.56,5.57-36.52,25.73-36.66,28.03,3.37,9.9,8.58,19.72,12.11,29.45,17.05,46.89-37.72-10.78-43.91-9.7-5.8,5.27-37.31,30.8-42.85,28.05-1.42-1.24-3.4-2.7-3.77-4.56-1.31-6.54,15.89-33.6,15.84-43.11-.85-4.28-30.66-21.72-35.06-29.24-11.78-20.14,34.15-7.7,43.83-12.5,3.44-2.32,11.92-33.53,15.91-40.12,2.45-4.05,9.07-4.08,12.09-.5,4.54,5.39,13.43,39.27,15.8,41.34Z"/></svg>